<svg width="158" height="38" viewBox="0 0 158 38" fill="none" xmlns="http://www.w3.org/2000/svg">
<path d="M7.51562 26.3906L12.0469 7.25H14.5781L15.1562 10.4375L10.3281 30H7.60938L7.51562 26.3906ZM5.1875 7.25L8.9375 26.3906L8.625 30H5.59375L0.546875 7.25H5.1875ZM19.1406 26.3125L22.8438 7.25H27.4844L22.4531 30H19.4219L19.1406 26.3125ZM16 7.25L20.5625 26.4688L20.4375 30H17.7188L12.8594 10.4219L13.4844 7.25H16ZM34.6206 6V30H30.1206V6H34.6206ZM33.98 20.9531H32.7456C32.756 19.776 32.9123 18.6927 33.2144 17.7031C33.5165 16.7031 33.9487 15.8385 34.5112 15.1094C35.0737 14.3698 35.7456 13.7969 36.5269 13.3906C37.3185 12.9844 38.1935 12.7812 39.1519 12.7812C39.9852 12.7812 40.7404 12.901 41.4175 13.1406C42.105 13.3698 42.6935 13.7448 43.1831 14.2656C43.6831 14.776 44.0685 15.4479 44.3394 16.2812C44.6102 17.1146 44.7456 18.125 44.7456 19.3125V30H40.2144V19.2812C40.2144 18.5312 40.105 17.9427 39.8862 17.5156C39.6779 17.0781 39.3706 16.7708 38.9644 16.5938C38.5685 16.4062 38.079 16.3125 37.4956 16.3125C36.8498 16.3125 36.2977 16.4323 35.8394 16.6719C35.3915 16.9115 35.0321 17.2448 34.7612 17.6719C34.4904 18.0885 34.2925 18.5781 34.1675 19.1406C34.0425 19.7031 33.98 20.3073 33.98 20.9531ZM57.7725 26.1875V18.6562C57.7725 18.1146 57.684 17.651 57.5069 17.2656C57.3298 16.8698 57.0537 16.5625 56.6787 16.3438C56.3142 16.125 55.8402 16.0156 55.2569 16.0156C54.7569 16.0156 54.3246 16.1042 53.96 16.2812C53.5954 16.4479 53.3142 16.6927 53.1162 17.0156C52.9183 17.3281 52.8194 17.6979 52.8194 18.125H48.3194C48.3194 17.4062 48.486 16.724 48.8194 16.0781C49.1527 15.4323 49.6371 14.8646 50.2725 14.375C50.9079 13.875 51.6631 13.4844 52.5381 13.2031C53.4235 12.9219 54.4131 12.7812 55.5069 12.7812C56.8194 12.7812 57.986 13 59.0069 13.4375C60.0277 13.875 60.8298 14.5312 61.4131 15.4062C62.0069 16.2812 62.3037 17.375 62.3037 18.6875V25.9219C62.3037 26.849 62.361 27.6094 62.4756 28.2031C62.5902 28.7865 62.7569 29.2969 62.9756 29.7344V30H58.4287C58.21 29.5417 58.0433 28.9688 57.9287 28.2812C57.8246 27.5833 57.7725 26.8854 57.7725 26.1875ZM58.3662 19.7031L58.3975 22.25H55.8819C55.2881 22.25 54.7725 22.3177 54.335 22.4531C53.8975 22.5885 53.5381 22.7812 53.2569 23.0312C52.9756 23.2708 52.7673 23.5521 52.6319 23.875C52.5069 24.1979 52.4444 24.5521 52.4444 24.9375C52.4444 25.3229 52.5329 25.6719 52.71 25.9844C52.8871 26.2865 53.1423 26.526 53.4756 26.7031C53.809 26.8698 54.1996 26.9531 54.6475 26.9531C55.3246 26.9531 55.9131 26.8177 56.4131 26.5469C56.9131 26.276 57.2985 25.9427 57.5694 25.5469C57.8506 25.151 57.9965 24.776 58.0069 24.4219L59.1944 26.3281C59.0277 26.7552 58.7985 27.1979 58.5069 27.6562C58.2256 28.1146 57.8662 28.5469 57.4287 28.9531C56.9912 29.349 56.4652 29.6771 55.8506 29.9375C55.236 30.1875 54.5069 30.3125 53.6631 30.3125C52.5902 30.3125 51.6162 30.099 50.7412 29.6719C49.8767 29.2344 49.1892 28.6354 48.6787 27.875C48.1787 27.1042 47.9287 26.2292 47.9287 25.25C47.9287 24.3646 48.0954 23.5781 48.4287 22.8906C48.7621 22.2031 49.2517 21.625 49.8975 21.1562C50.5537 20.6771 51.3715 20.3177 52.3506 20.0781C53.3298 19.8281 54.4652 19.7031 55.7569 19.7031H58.3662ZM74.5338 13.0938V16.2812H64.69V13.0938H74.5338ZM67.1275 8.92188H71.6275V24.9062C71.6275 25.3958 71.69 25.7708 71.815 26.0312C71.9504 26.2917 72.1483 26.474 72.4088 26.5781C72.6692 26.6719 72.9973 26.7188 73.3931 26.7188C73.6744 26.7188 73.9244 26.7083 74.1431 26.6875C74.3723 26.6562 74.565 26.625 74.7213 26.5938L74.7369 29.9062C74.3515 30.0312 73.9348 30.1302 73.4869 30.2031C73.039 30.276 72.5442 30.3125 72.0025 30.3125C71.0129 30.3125 70.1483 30.151 69.4088 29.8281C68.6796 29.4948 68.1171 28.9635 67.7213 28.2344C67.3254 27.5052 67.1275 26.5469 67.1275 25.3594V8.92188ZM81.9356 6V8.375C81.9356 9.05208 81.8054 9.75 81.545 10.4688C81.295 11.1875 80.9565 11.8698 80.5294 12.5156C80.1023 13.151 79.6335 13.6927 79.1231 14.1406L77.0137 12.9219C77.3992 12.3073 77.7273 11.6406 77.9981 10.9219C78.269 10.1927 78.4044 9.34896 78.4044 8.39062V6H81.9356ZM91.7594 25.3281C91.7594 25.0052 91.6656 24.7135 91.4781 24.4531C91.2906 24.1927 90.9417 23.9531 90.4313 23.7344C89.9313 23.5052 89.2073 23.2969 88.2594 23.1094C87.4052 22.9219 86.6083 22.6875 85.8688 22.4062C85.1396 22.1146 84.5042 21.7656 83.9625 21.3594C83.4313 20.9531 83.0146 20.474 82.7125 19.9219C82.4104 19.3594 82.2594 18.7188 82.2594 18C82.2594 17.2917 82.4104 16.625 82.7125 16C83.025 15.375 83.4677 14.8229 84.0406 14.3438C84.624 13.8542 85.3323 13.474 86.1656 13.2031C87.0094 12.9219 87.9573 12.7812 89.0094 12.7812C90.4781 12.7812 91.7385 13.0156 92.7906 13.4844C93.8531 13.9531 94.6656 14.599 95.2281 15.4219C95.801 16.2344 96.0875 17.1615 96.0875 18.2031H91.5875C91.5875 17.7656 91.4938 17.375 91.3063 17.0312C91.1292 16.6771 90.8479 16.401 90.4625 16.2031C90.0875 15.9948 89.5979 15.8906 88.9938 15.8906C88.4938 15.8906 88.0615 15.9792 87.6969 16.1562C87.3323 16.3229 87.051 16.5521 86.8531 16.8438C86.6656 17.125 86.5719 17.4375 86.5719 17.7812C86.5719 18.0417 86.624 18.276 86.7281 18.4844C86.8427 18.6823 87.025 18.8646 87.275 19.0312C87.525 19.1979 87.8479 19.3542 88.2438 19.5C88.65 19.6354 89.15 19.7604 89.7438 19.875C90.9625 20.125 92.051 20.4531 93.0094 20.8594C93.9677 21.2552 94.7281 21.7969 95.2906 22.4844C95.8531 23.1615 96.1344 24.0521 96.1344 25.1562C96.1344 25.9062 95.9677 26.5938 95.6344 27.2188C95.301 27.8438 94.8219 28.3906 94.1969 28.8594C93.5719 29.3177 92.8219 29.6771 91.9469 29.9375C91.0823 30.1875 90.1083 30.3125 89.025 30.3125C87.4521 30.3125 86.1188 30.0312 85.025 29.4688C83.9417 28.9062 83.1188 28.1927 82.5563 27.3281C82.0042 26.4531 81.7281 25.5573 81.7281 24.6406H85.9938C86.0146 25.2552 86.1708 25.75 86.4625 26.125C86.7646 26.5 87.1448 26.7708 87.6031 26.9375C88.0719 27.1042 88.5771 27.1875 89.1188 27.1875C89.7021 27.1875 90.1865 27.1094 90.5719 26.9531C90.9573 26.7865 91.249 26.5677 91.4469 26.2969C91.6552 26.0156 91.7594 25.6927 91.7594 25.3281ZM107.317 30.3125C106.005 30.3125 104.828 30.1042 103.786 29.6875C102.745 29.2604 101.859 28.6719 101.13 27.9219C100.411 27.1719 99.8592 26.3021 99.4737 25.3125C99.0883 24.3125 98.8956 23.25 98.8956 22.125V21.5C98.8956 20.2188 99.0779 19.0469 99.4425 17.9844C99.8071 16.9219 100.328 16 101.005 15.2188C101.692 14.4375 102.526 13.8385 103.505 13.4219C104.484 12.9948 105.588 12.7812 106.817 12.7812C108.015 12.7812 109.078 12.9792 110.005 13.375C110.932 13.7708 111.708 14.3333 112.333 15.0625C112.969 15.7917 113.448 16.6667 113.771 17.6875C114.094 18.6979 114.255 19.8229 114.255 21.0625V22.9375H100.817V19.9375H109.833V19.5938C109.833 18.9688 109.719 18.4115 109.489 17.9219C109.271 17.4219 108.937 17.026 108.489 16.7344C108.041 16.4427 107.469 16.2969 106.771 16.2969C106.177 16.2969 105.666 16.4271 105.239 16.6875C104.812 16.9479 104.463 17.3125 104.192 17.7812C103.932 18.25 103.734 18.8021 103.599 19.4375C103.474 20.0625 103.411 20.75 103.411 21.5V22.125C103.411 22.8021 103.505 23.4271 103.692 24C103.89 24.5729 104.166 25.0677 104.521 25.4844C104.885 25.901 105.323 26.224 105.833 26.4531C106.354 26.6823 106.942 26.7969 107.599 26.7969C108.411 26.7969 109.166 26.6406 109.864 26.3281C110.573 26.0052 111.182 25.5208 111.692 24.875L113.88 27.25C113.526 27.7604 113.041 28.25 112.427 28.7188C111.823 29.1875 111.094 29.5729 110.239 29.875C109.385 30.1667 108.411 30.3125 107.317 30.3125ZM122.048 6V30H117.532V6H122.048ZM130.996 6V30H126.481V6H130.996ZM151.316 23.0469H147.331C147.342 22.1094 147.415 21.3021 147.55 20.625C147.696 19.9375 147.941 19.3177 148.284 18.7656C148.639 18.2135 149.107 17.6667 149.691 17.125C150.18 16.6875 150.607 16.2708 150.972 15.875C151.336 15.4792 151.623 15.0729 151.831 14.6562C152.04 14.2292 152.144 13.7552 152.144 13.2344C152.144 12.6302 152.05 12.1302 151.863 11.7344C151.685 11.3281 151.415 11.0208 151.05 10.8125C150.696 10.6042 150.248 10.5 149.706 10.5C149.258 10.5 148.842 10.599 148.456 10.7969C148.071 10.9844 147.753 11.276 147.503 11.6719C147.264 12.0677 147.139 12.5885 147.128 13.2344H142.597C142.628 11.8073 142.956 10.6302 143.581 9.70312C144.217 8.76562 145.066 8.07292 146.128 7.625C147.191 7.16667 148.383 6.9375 149.706 6.9375C151.165 6.9375 152.415 7.17708 153.456 7.65625C154.498 8.125 155.295 8.81771 155.847 9.73438C156.399 10.6406 156.675 11.7448 156.675 13.0469C156.675 13.9531 156.498 14.7604 156.144 15.4688C155.79 16.1667 155.326 16.8177 154.753 17.4219C154.18 18.026 153.55 18.651 152.863 19.2969C152.269 19.8281 151.863 20.3854 151.644 20.9688C151.435 21.5521 151.326 22.2448 151.316 23.0469ZM146.863 27.875C146.863 27.2083 147.092 26.6562 147.55 26.2188C148.008 25.7708 148.623 25.5469 149.394 25.5469C150.154 25.5469 150.764 25.7708 151.222 26.2188C151.691 26.6562 151.925 27.2083 151.925 27.875C151.925 28.5208 151.691 29.0677 151.222 29.5156C150.764 29.9635 150.154 30.1875 149.394 30.1875C148.623 30.1875 148.008 29.9635 147.55 29.5156C147.092 29.0677 146.863 28.5208 146.863 27.875Z" fill="url(#paint0_linear_14314_13612)"/>
<defs>
<linearGradient id="paint0_linear_14314_13612" x1="158" y1="6.97812" x2="4.36454e-06" y2="31.0219" gradientUnits="userSpaceOnUse">
<stop stop-color="#5D5FEF"/>
<stop offset="0.530661" stop-color="#4849B9"/>
<stop offset="1" stop-color="#353689"/>
</linearGradient>
</defs>
</svg>
